<?xml version="1.0" standalone="no"?>
<!DOCTYPE svg PUBLIC "-//W3C//DTD SVG 20010904//EN"
 "http://www.w3.org/TR/2001/REC-SVG-20010904/DTD/svg10.dtd">
<svg version="1.0" xmlns="http://www.w3.org/2000/svg"
 width="2500.000000pt" height="2500.000000pt" viewBox="0 0 2500.000000 2500.000000"
 preserveAspectRatio="xMidYMid meet">

<g transform="translate(0.000000,2500.000000) scale(0.100000,-0.100000)"
fill="#000000" stroke="none">
<path d="M9834 18668 c-1463 -1465 -2714 -2724 -2780 -2798 -402 -456 -699
-876 -974 -1376 -455 -827 -757 -1804 -855 -2764 -52 -519 -45 -1137 20 -1660
245 -1962 1281 -3739 2880 -4940 1140 -856 2492 -1350 3940 -1440 339 -21 827
-11 1180 25 2032 207 3869 1245 5106 2888 759 1006 1244 2206 1403 3467 65
517 73 1141 21 1660 -95 933 -384 1886 -816 2692 -315 587 -665 1075 -1132
1576 l-152 162 -647 -647 -647 -647 112 -116 c476 -494 883 -1142 1138 -1813
442 -1165 474 -2461 88 -3646 -184 -565 -470 -1116 -824 -1586 -530 -705
-1173 -1240 -1955 -1629 -631 -313 -1250 -486 -1995 -558 -197 -19 -731 -16
-945 5 -704 70 -1325 247 -1940 553 -974 484 -1767 1228 -2315 2173 -107 185
-270 523 -348 721 -574 1462 -503 3076 195 4475 213 425 468 803 802 1185 55
63 1001 1017 2103 2120 l2003 2006 -2 1287 -3 1287 -2661 -2662z"/>
<path d="M14921 18389 c-29 -5 -95 -23 -145 -40 -475 -158 -742 -668 -607
-1154 78 -277 294 -518 562 -624 176 -69 400 -84 579 -38 350 90 609 352 697
703 27 109 24 344 -5 454 -96 356 -393 633 -747 695 -95 16 -248 18 -334 4z"/>
</g>
</svg>
