<?xml version="1.0" standalone="no"?>
<!DOCTYPE svg PUBLIC "-//W3C//DTD SVG 20010904//EN"
 "http://www.w3.org/TR/2001/REC-SVG-20010904/DTD/svg10.dtd">
<svg version="1.0" xmlns="http://www.w3.org/2000/svg"
 width="1200.000000pt" height="1000.000000pt" viewBox="0 0 1200.000000 1000.000000"
 preserveAspectRatio="xMidYMid meet">

<g transform="translate(0.000000,1000.000000) scale(0.100000,-0.100000)"
fill="#000000" stroke="none">
<path d="M6460 6823 l0 -408 713 -407 712 -407 3 207 c2 114 0 297 -3 407 l-7
201 -651 374 c-357 206 -676 390 -709 408 l-58 33 0 -408z"/>
<path d="M3560 6003 l0 -398 28 -16 c15 -8 153 -90 307 -181 154 -90 301 -177
328 -192 l47 -28 0 409 -1 408 -348 198 c-192 108 -352 197 -355 197 -3 0 -6
-179 -6 -397z"/>
<path d="M5363 5782 l-352 -197 0 -1230 0 -1230 354 -212 355 -212 0 809 c0
446 3 810 6 810 4 0 160 -82 348 -181 187 -100 349 -186 359 -191 16 -8 17 14
17 404 l0 413 -358 199 c-196 109 -359 201 -361 203 -3 2 -7 185 -10 408 l-6
404 -352 -197z"/>
</g>
</svg>
